<?xml version="1.0" standalone="no"?>
<!DOCTYPE svg PUBLIC "-//W3C//DTD SVG 20010904//EN"
 "http://www.w3.org/TR/2001/REC-SVG-20010904/DTD/svg10.dtd">
<svg version="1.0" xmlns="http://www.w3.org/2000/svg"
 width="110.000000pt" height="110.000000pt" viewBox="0 0 110.000000 110.000000"
 preserveAspectRatio="xMidYMid meet">
<metadata>
Created by potrace 1.10, written by Peter Selinger 2001-2011
</metadata>
<g transform="translate(0.000000,110.000000) scale(0.100000,-0.100000)"
fill="#000000" stroke="none">
<path d="M479 1059 c-180 -26 -332 -150 -400 -324 -33 -86 -33 -244 0 -330 34
-87 88 -163 148 -209 l53 -41 -61 -3 c-50 -3 -60 -6 -57 -20 2 -9 13 -18 26
-20 12 -2 22 -10 22 -18 0 -11 -15 -14 -65 -14 -58 0 -65 -2 -65 -20 0 -20 5
-20 467 -18 375 2 467 6 471 16 2 7 -5 16 -17 19 -16 4 -19 9 -11 23 27 51 3
96 -73 140 -38 22 -65 30 -100 30 -45 0 -52 -3 -97 -50 -55 -57 -83 -70 -146
-70 l-45 0 3 98 c4 119 22 126 26 11 l3 -82 41 6 c32 4 52 17 92 56 73 72 105
79 213 46 16 -5 24 -1 33 14 6 12 8 26 5 31 -11 18 6 32 22 19 19 -16 27 -5
53 80 53 170 5 360 -124 486 -119 116 -265 167 -417 144z m192 -49 c70 -21
174 -81 183 -105 3 -8 12 -15 21 -15 21 0 19 -13 -4 -34 -18 -17 -47 -14 -37
3 9 14 -55 81 -96 102 -40 21 -90 22 -130 5 -15 -7 -18 -3 -18 28 0 20 4 36 9
36 5 0 37 -9 72 -20z m-171 -7 c0 -26 -16 -48 -24 -34 -11 18 -83 13 -125 -9
-44 -22 -81 -64 -81 -91 0 -22 -32 -26 -48 -6 -15 18 11 47 78 90 97 61 200
86 200 50z m58 -95 c-4 -149 -22 -149 -26 0 -2 96 0 112 13 112 13 0 15 -16
13 -112z m-90 30 c7 -7 12 -29 12 -49 0 -33 -3 -37 -30 -43 -17 -3 -47 -17
-67 -31 -35 -23 -38 -24 -56 -7 -35 31 -38 48 -16 76 41 52 129 82 157 54z
m257 -9 c44 -22 75 -54 75 -75 0 -7 -11 -25 -23 -40 l-24 -28 -33 24 c-18 13
-49 29 -69 36 -29 10 -37 18 -39 42 -4 34 19 62 51 62 12 0 40 -9 62 -21z
m-445 -150 c79 -56 100 -79 75 -79 -17 -1 -185 122 -179 131 9 15 16 11 104
-52z m640 52 c0 -17 -182 -143 -192 -133 -7 7 21 33 79 76 84 62 113 77 113
57z m-431 -5 c-16 -16 -120 -63 -117 -53 6 16 78 57 102 57 11 0 17 -2 15 -4z
m209 -28 c17 -11 30 -24 27 -28 -3 -5 -22 2 -42 15 -20 14 -44 25 -54 25 -11
0 -19 5 -19 11 0 15 46 3 88 -23z m-512 -25 l25 -27 -25 -13 c-13 -7 -35 -30
-47 -50 -20 -31 -24 -52 -23 -113 0 -83 17 -129 60 -156 l25 -17 -22 -23 c-12
-13 -26 -21 -31 -18 -10 6 -51 84 -43 84 2 0 0 12 -6 28 -18 46 -13 180 9 242
38 106 38 106 78 63z m263 -4 c-23 -11 -44 -17 -46 -15 -7 7 71 45 80 39 5 -3
-10 -14 -34 -24z m238 -15 c-7 -7 -77 28 -77 38 0 5 18 -1 41 -12 23 -12 39
-24 36 -26z m271 28 c-2 -11 3 -26 10 -34 20 -24 25 -55 30 -163 4 -108 -7
-164 -39 -196 -16 -16 -23 -17 -40 -9 -19 11 -19 13 15 50 39 43 54 113 42
195 -8 49 -50 109 -72 101 -27 -10 -23 12 8 42 34 36 51 41 46 14z m-341 -57
c17 -13 17 -15 -4 -37 l-23 -22 0 26 c0 16 -9 33 -22 42 -19 14 -25 14 -43 2
-11 -8 -20 -23 -19 -35 1 -25 -9 -27 -31 -5 -14 15 -14 18 10 40 14 12 25 28
25 34 0 7 6 8 18 1 12 -6 23 -5 37 5 18 13 20 13 27 -12 4 -14 15 -32 25 -39z
m-127 41 c0 -5 -65 -46 -74 -46 -16 0 -3 21 22 34 26 15 52 20 52 12z m160
-11 c17 -9 30 -20 30 -26 0 -6 -3 -9 -7 -7 -49 24 -63 32 -63 40 0 11 7 10 40
-7z m-87 -42 c9 -9 -13 -34 -24 -27 -14 8 -11 34 4 34 8 0 17 -3 20 -7z m178
-42 c38 -13 60 -50 61 -103 1 -64 -9 -90 -35 -87 -38 2 -46 0 -57 -22 -9 -16
-8 -26 4 -43 15 -23 13 -25 -46 -60 -71 -42 -74 -42 -87 -17 -17 31 -40 33
-66 7 -22 -22 -28 -23 -57 -13 -18 7 -39 18 -46 25 -7 6 -20 12 -27 12 -23 0
-26 17 -8 48 17 29 17 31 -2 52 -23 25 -11 53 25 58 19 3 22 0 17 -18 -12 -48
31 -84 64 -54 10 9 19 15 20 13 0 -2 2 -12 4 -22 7 -37 15 -47 39 -47 25 0 41
22 37 54 -2 10 1 16 6 14 4 -2 20 -10 36 -18 25 -12 29 -11 42 6 8 10 13 28
10 39 -3 12 5 30 21 46 l26 27 -23 23 c-12 12 -23 36 -24 53 -1 17 -4 38 -6
46 -2 8 2 14 9 13 6 -2 12 3 13 10 0 6 5 2 11 -10 6 -12 23 -26 39 -32z m-490
24 c26 -14 28 -18 18 -37 -16 -29 -16 -147 -1 -175 11 -20 9 -24 -18 -38 -62
-32 -100 15 -100 123 0 90 20 131 68 141 2 1 16 -6 33 -14z m174 5 c11 -5 15
-9 9 -9 -18 -1 -26 -32 -13 -48 9 -11 8 -17 -7 -28 -25 -19 -27 -19 -52 8
l-22 24 27 30 c31 35 31 35 58 23z m496 -20 c40 -47 29 -206 -17 -237 -20 -13
-29 -13 -55 -3 -27 12 -29 16 -22 44 10 39 10 131 -1 172 -7 26 -4 32 16 41
28 14 58 7 79 -17z m-451 -20 c0 -11 -7 -20 -15 -20 -8 0 -15 9 -15 20 0 11 7
20 15 20 8 0 15 -9 15 -20z m185 -1 c0 -7 -8 -15 -17 -17 -18 -3 -25 18 -11
32 10 10 28 1 28 -15z m-350 -89 c0 -86 -6 -109 -19 -74 -8 20 -8 112 0 142
12 44 19 20 19 -68z m294 44 c27 -35 26 -59 -4 -89 -47 -48 -115 -19 -115 49
0 64 79 90 119 40z m-265 -42 l-1 -47 4 43 c5 55 23 54 23 -2 0 -40 -11 -56
-36 -56 -2 0 -4 28 -4 62 0 34 3 58 7 54 4 -3 7 -28 7 -54z m102 7 c10 -17
-13 -36 -27 -22 -12 12 -4 33 11 33 5 0 12 -5 16 -11z m252 -12 c2 -10 -3 -17
-12 -17 -18 0 -29 16 -21 31 9 14 29 6 33 -14z m-30 -84 c-2 -10 -10 -18 -18
-18 -8 0 -16 8 -18 18 -2 12 3 17 18 17 15 0 20 -5 18 -17z m-288 -35 c-1 -11
-154 -126 -182 -137 -5 -2 -8 4 -6 12 3 18 155 135 176 136 6 1 12 -5 12 -11z
m194 -3 c3 -9 -1 -18 -10 -22 -19 -7 -28 2 -21 22 8 19 23 19 31 0z m267 -47
c79 -55 101 -78 75 -80 -16 -1 -186 123 -181 133 9 14 10 13 106 -53z m-73
-51 c9 -10 4 -16 -23 -26 -18 -6 -48 -28 -66 -49 -48 -55 -59 -59 -59 -20 0
34 3 37 95 90 37 21 40 21 53 5z m-378 -12 c9 -8 34 -21 56 -28 37 -13 39 -16
39 -58 0 -38 -3 -45 -27 -53 -22 -8 -38 -4 -85 20 -47 24 -59 35 -61 58 -2 19
4 36 19 52 26 28 36 29 59 9z m-108 -71 c7 -32 17 -44 53 -67 52 -33 112 -45
144 -27 20 10 23 9 28 -9 3 -12 10 -21 15 -21 5 0 6 -5 3 -10 -6 -10 -18 -9
-95 9 -25 6 -62 11 -82 11 -21 0 -38 5 -38 10 0 6 -22 32 -50 59 -27 27 -50
53 -50 58 0 12 41 33 55 29 5 -1 13 -20 17 -42z m546 -36 c-2 -6 -21 -22 -41
-35 -28 -18 -37 -20 -37 -9 0 17 47 56 67 56 8 0 13 -5 11 -12z m76 -17 c9
-14 -63 -67 -136 -101 -84 -39 -165 -54 -258 -46 -41 4 -114 9 -162 13 -69 4
-88 9 -88 21 0 13 14 14 103 7 259 -21 340 -8 463 75 64 42 70 44 78 31z m61
-71 c0 -18 -6 -26 -23 -28 -13 -2 -25 3 -28 12 -10 26 4 48 28 44 17 -2 23
-10 23 -28z m-74 -32 c10 -13 18 -26 19 -30 0 -5 -26 -8 -57 -8 l-58 1 35 29
c19 17 36 30 38 30 2 0 12 -10 23 -22z"/>
</g>
</svg>
